<svg xmlns="http://www.w3.org/2000/svg" width="12" height="12.019" viewBox="0 0 12 12.019">
  <g id="Group_13" data-name="Group 13" transform="translate(-1106 -6252)">
    <path id="Vector" d="M3.081,0A3.081,3.081,0,1,0,5.26.9,3.081,3.081,0,0,0,3.081,0Zm0,5.082A2,2,0,1,1,4.5,4.5a2,2,0,0,1-1.415.586Z" transform="translate(1108.914 6254.914)" fill="#3e4581"/>
    <path id="Vector-2" data-name="Vector" d="M1.437.718A.718.718,0,1,1,.718,0,.718.718,0,0,1,1.437.718Z" transform="translate(1114.48 6254.082)" fill="#3e4581"/>
    <path id="Vector-3" data-name="Vector" d="M11.682,2.07A3.069,3.069,0,0,0,9.928.316,4.4,4.4,0,0,0,8.471.036C7.829.008,7.626,0,6,0S4.163,0,3.526.036a4.367,4.367,0,0,0-1.455.28A3.065,3.065,0,0,0,.317,2.07,4.388,4.388,0,0,0,.037,3.526C.009,4.167,0,4.371,0,6S0,7.833.037,8.471A4.395,4.395,0,0,0,.317,9.928a3.072,3.072,0,0,0,1.755,1.754,4.387,4.387,0,0,0,1.456.3c.642.028.845.037,2.472.037s1.836,0,2.472-.037A4.408,4.408,0,0,0,9.929,11.7a3.074,3.074,0,0,0,1.755-1.755,4.388,4.388,0,0,0,.279-1.457c.029-.641.037-.844.037-2.472s0-1.835-.037-2.472a4.385,4.385,0,0,0-.281-1.477Zm-.812,6.352a3.36,3.36,0,0,1-.207,1.125,1.99,1.99,0,0,1-1.141,1.14,3.322,3.322,0,0,1-1.113.207c-.633.029-.812.037-2.435.037s-1.791,0-2.436-.037a3.305,3.305,0,0,1-1.112-.207,1.989,1.989,0,0,1-1.145-1.14,3.385,3.385,0,0,1-.207-1.112C1.046,7.8,1.039,7.623,1.039,6s0-1.79.035-2.436A3.357,3.357,0,0,1,1.281,2.44,1.99,1.99,0,0,1,2.427,1.3a3.339,3.339,0,0,1,1.112-.207c.634-.029.812-.037,2.436-.037s1.791,0,2.435.037A3.305,3.305,0,0,1,9.522,1.3,1.993,1.993,0,0,1,10.663,2.44a3.385,3.385,0,0,1,.207,1.112c.029.634.036.812.036,2.436s0,1.8-.029,2.435h-.007Z" transform="translate(1106 6252)" fill="#3e4581"/>
  </g>
</svg>
