<svg xmlns="http://www.w3.org/2000/svg" width="13" height="9" viewBox="0 0 13 9">
  <path id="Vector" d="M12.736,1.415A1.606,1.606,0,0,0,12.316.7a1.632,1.632,0,0,0-.725-.416A38.506,38.506,0,0,0,6.5,0,39.93,39.93,0,0,0,1.418.259,1.667,1.667,0,0,0,.693.682,1.64,1.64,0,0,0,.271,1.4,16.834,16.834,0,0,0,0,4.494,16.731,16.731,0,0,0,.264,7.586,1.619,1.619,0,0,0,1.409,8.719,38.579,38.579,0,0,0,6.495,9a40.021,40.021,0,0,0,5.087-.259,1.638,1.638,0,0,0,.726-.415,1.611,1.611,0,0,0,.422-.717A16.759,16.759,0,0,0,13,4.518a15.936,15.936,0,0,0-.264-3.1ZM5.2,6.426l0-3.854L8.588,4.5,5.2,6.426Z" fill="#3e4581"/>
</svg>
